<svg width="65" height="65" viewBox="0 0 65 65" fill="none" xmlns="http://www.w3.org/2000/svg">
<path d="M29.888 35.4195L22.6139 27.6552C22.261 27.2769 21.6668 27.2591 21.2885 27.6121C20.9101 27.965 20.8924 28.5591 21.2453 28.9375L29.2026 37.4304C29.3778 37.6183 29.6292 37.7275 29.8856 37.7275C30.1421 37.7275 30.3935 37.6183 30.5687 37.4304L44.9909 22.041C45.3438 21.6627 45.326 21.0711 44.9477 20.7156C44.5694 20.3626 43.9778 20.3804 43.6223 20.7587L29.888 35.4195Z" fill="white"/>
<path d="M55.4409 10.6639L32.7897 3.29549C32.6043 3.23455 32.3961 3.23455 32.2108 3.29549L9.55957 10.6639C9.17363 10.7883 8.91211 11.1514 8.91211 11.5551V27.9702C8.91211 39.368 14.6097 50.0117 24.0929 56.3343L31.9819 61.5926C32.2968 61.8034 32.7056 61.8034 33.0229 61.5926L40.912 56.3343C50.3955 50.012 56.0928 39.368 56.0928 27.9702L56.0877 11.5551C56.0877 11.1489 55.8261 10.7883 55.4402 10.6639H55.4409ZM54.2145 27.9701C54.2145 38.7406 48.8317 48.8007 39.869 54.7748L32.5006 59.6854L25.1322 54.7723C16.1694 48.7979 10.7867 38.7407 10.7867 27.9676V12.2357L32.5006 5.1721L54.2145 12.2357V27.9701Z" fill="white"/>
</svg>
